<svg width="72" height="26" viewBox="0 0 72 26" fill="none" xmlns="http://www.w3.org/2000/svg">
<path d="M7.49611 2.76205V1.32493L7.41608 1.29781C6.88255 1.08089 6.3757 0.945312 5.86884 0.945312C5.1219 0.945312 4.50834 1.21647 4.08151 1.75878C3.62801 2.30108 3.4146 3.0332 3.38792 3.95512C3.38792 4.87705 3.60134 5.63628 4.02816 6.15147C4.45499 6.69378 5.06855 6.96493 5.81549 6.99205H5.84217C6.3757 6.99205 6.88255 6.85647 7.38941 6.58532L7.46944 6.55821V5.69051L7.2827 5.79897C6.77585 6.07013 6.29567 6.17859 5.86884 6.17859C5.36199 6.17859 4.98852 5.98878 4.72175 5.63628C4.45499 5.28378 4.29493 4.71436 4.3216 3.92801C4.3216 3.19589 4.45499 2.65358 4.74843 2.30108C5.01519 1.94858 5.38867 1.78589 5.89552 1.78589C6.21564 1.78589 6.50908 1.84012 6.72249 1.92147V2.78916L7.49611 2.76205Z" fill="#C99E71"/>
<path d="M11.8177 7.04599C12.5113 7.04599 13.0715 6.77484 13.4717 6.23253C13.8718 5.69022 14.0852 4.93099 14.0852 3.98195C14.0852 3.08714 13.8985 2.35502 13.525 1.83983C13.1515 1.29752 12.618 1.02637 11.9244 1.02637C11.2308 1.02637 10.6706 1.29752 10.2438 1.83983C9.84365 2.38214 9.63024 3.11426 9.63024 4.03618C9.63024 4.9581 9.81698 5.71733 10.2171 6.25964C10.6173 6.74772 11.1508 7.01888 11.8177 7.04599ZM10.9107 2.32791C11.1508 2.00252 11.4709 1.81271 11.8977 1.83983C12.3246 1.83983 12.6447 2.00252 12.8581 2.35502C13.0982 2.70753 13.2049 3.24983 13.2049 3.98195C13.2049 4.74118 13.0715 5.3106 12.8314 5.6631C12.5913 6.0156 12.2712 6.20541 11.8711 6.20541C11.4442 6.20541 11.1508 6.0156 10.9107 5.6631C10.6706 5.28349 10.5639 4.71407 10.5639 3.98195C10.5372 3.22272 10.6706 2.65329 10.9107 2.32791Z" fill="#C99E71"/>
<path d="M16.2193 6.17824V6.96459L18.4068 6.9917V6.20535H17.7132V4.49708H18.5669V5.12074H19.3138L19.3405 3.22265H18.5669V3.73785L17.7132 3.71073L17.7399 1.92111H19.2605V2.65323H20.0341L20.0607 1.16188L16.2727 1.13477V1.92111H16.8596L16.8329 6.17824H16.2193Z" fill="#C99E71"/>
<path d="M21.7947 6.2327V7.01904H23.9555L23.9822 6.2327H23.2619L23.2886 4.55154H24.1156V5.17519H24.8892V3.25H24.1423V3.76519H23.2886V1.97557H24.8359L24.8092 2.70769H25.6095L25.6361 1.21634L21.8214 1.16211V1.94846H22.435L22.4083 6.2327H21.7947Z" fill="#C99E71"/>
<path d="M27.3701 6.25929L27.3434 7.04564L31.2382 7.07275L31.2649 5.5814H30.4646V6.28641H28.8373V4.49678H29.5843V5.12044H30.3579V3.19524H29.611V3.71044H28.864V2.00217L30.3846 2.02928V2.73428L31.1849 2.7614V1.24293L27.3968 1.21582V2.00217H28.0104L27.957 6.28641L27.3701 6.25929Z" fill="#C99E71"/>
<path d="M33.239 6.31398L33.2123 7.10033L37.1071 7.12744L37.1337 5.63609L36.3334 5.60898V6.34109L34.7062 6.31398V4.52436H35.4531V5.14802H36.2267V3.24994H35.4798V3.76513L34.7062 3.73801L34.7329 2.05685H36.2534V2.78897H37.0537V1.29762L33.2656 1.27051V2.02974L33.8792 2.05685L33.8259 6.31398H33.239Z" fill="#C99E71"/>
<path d="M48.7914 2.97878V1.62301L48.7114 1.59589C48.2845 1.37897 47.831 1.27051 47.3242 1.27051C46.7373 1.27051 46.2838 1.40608 45.937 1.70435C45.5902 2.00262 45.4035 2.38224 45.4035 2.87032C45.4035 3.14147 45.4568 3.38551 45.5369 3.57532C45.6436 3.76513 45.7503 3.92782 45.9103 4.0634C46.0704 4.19898 46.2304 4.30744 46.4172 4.38878C46.6039 4.47013 46.7907 4.55148 46.9507 4.60571C47.1375 4.68705 47.2975 4.7684 47.4576 4.82263C47.591 4.90397 47.6977 4.9582 47.8044 5.03955C47.8844 5.1209 47.9644 5.20224 47.9911 5.31071C48.0445 5.39205 48.0711 5.52763 48.0711 5.66321C48.0711 5.93436 47.9911 6.12417 47.8044 6.28686C47.6176 6.44956 47.3509 6.50379 47.0307 6.50379C46.7106 6.50379 46.4439 6.47667 46.2304 6.39532V5.58186H45.4302V6.96475L45.5102 6.99186C45.9637 7.18167 46.4439 7.29013 46.9774 7.29013H47.0041C47.591 7.29013 48.0711 7.12744 48.4179 6.82917C48.7914 6.5309 48.9781 6.09705 48.9781 5.58186C48.9781 5.28359 48.9248 5.03955 48.8448 4.84974C48.7647 4.65994 48.6313 4.49724 48.4713 4.36167C48.3379 4.22609 48.1512 4.11763 47.9644 4.03628C47.7777 3.95493 47.591 3.87359 47.4042 3.79224C47.2175 3.7109 47.0574 3.65667 46.8974 3.57532C46.764 3.52109 46.6306 3.43974 46.5506 3.38551C46.4705 3.30417 46.3905 3.22282 46.3372 3.14147C46.2838 3.06012 46.2571 2.95166 46.2571 2.81609C46.2571 2.59916 46.3372 2.43647 46.4972 2.27378C46.6573 2.11109 46.924 2.02974 47.2442 2.05685C47.5109 2.05685 47.751 2.11109 47.9377 2.16532V2.95166L48.7914 2.97878Z" fill="#C99E71"/>
<path d="M50.9522 6.44972V7.23606L53.033 7.26318V6.47683H52.4194L52.4461 4.6601L54.9004 4.68721V6.47683H54.2868V7.26318H56.3409L56.3676 6.50395H55.754L55.7807 2.21971H56.3942V1.43336H54.3135V2.1926L54.927 2.21971L54.9004 3.90087L52.4461 3.87375V2.1926H53.0597V1.40625H51.0056L50.9789 2.1926H51.5925L51.5658 6.44972H50.9522Z" fill="#C99E71"/>
<path d="M60.6892 7.42588C60.7158 7.42588 60.7158 7.42588 60.6892 7.42588C61.3827 7.42588 61.943 7.15472 62.3431 6.61241C62.7432 6.0701 62.9567 5.31087 62.9567 4.36183C62.9567 3.46702 62.7699 2.73491 62.3965 2.21971C62.023 1.6774 61.4895 1.40625 60.7959 1.40625C60.1023 1.40625 59.5421 1.6774 59.1152 2.21971C58.7151 2.76202 58.5017 3.49414 58.5017 4.41606C58.5017 5.33799 58.6884 6.09722 59.0886 6.63953C59.4887 7.12761 60.0222 7.39876 60.6892 7.42588ZM59.7822 2.70779C60.0222 2.38241 60.3424 2.21971 60.7692 2.21971C61.196 2.21971 61.5161 2.3824 61.7295 2.7349C61.9696 3.08741 62.0763 3.62971 62.0763 4.36183C62.0763 5.12106 61.943 5.69049 61.7029 6.04299C61.4628 6.39549 61.1427 6.58529 60.7425 6.58529C60.3157 6.58529 60.0222 6.39549 59.7822 6.04299C59.5421 5.66337 59.4354 5.09395 59.4354 4.36183C59.4354 3.6026 59.5421 3.03318 59.7822 2.70779Z" fill="#C99E71"/>
<path d="M65.1175 6.55812V7.34446L67.305 7.37158V6.58523H66.6114V5.09388H66.9582C67.5984 5.09388 68.1053 4.93119 68.452 4.63292C68.7988 4.30754 68.9856 3.84657 68.9856 3.22292C68.9856 2.68061 68.8255 2.27388 68.5321 1.97561C68.2386 1.67734 67.7585 1.54177 67.1449 1.54177L65.1975 1.51465V2.301H65.8111L65.7844 6.58523L65.1175 6.55812ZM66.9848 4.30754H66.6114L66.638 2.301H67.0649C67.4383 2.301 67.7051 2.38234 67.8652 2.51792C68.0252 2.65349 68.1052 2.89753 68.1052 3.27715C68.1052 3.65677 67.9985 3.90081 67.8385 4.0635C67.5984 4.22619 67.3316 4.30754 66.9848 4.30754Z" fill="#C99E71"/>
<path d="M0 10.9238H11.4176C10.6173 14.0692 10.8574 14.0963 14.5654 14.2047C16.6462 14.259 17.073 14.6928 17.1797 16.7536C17.3664 20.8751 17.3664 20.8751 21.2345 19.7363C22.9952 19.2211 23.6354 19.5194 24.3023 21.2276C24.5691 21.8784 24.7025 22.5563 24.9426 23.2071C25.4494 24.59 26.1697 24.8882 27.4502 24.1561C28.2238 23.7223 28.8907 23.1257 29.6376 22.6648C30.5713 22.0682 31.4516 21.9598 32.1986 23.0444C32.7321 23.8036 33.319 24.5628 33.9326 25.2678C34.7595 26.244 35.5332 26.244 36.3868 25.2678C36.947 24.6442 37.4005 23.9392 37.9341 23.2884C38.9478 22.0411 39.6413 21.9326 40.9485 22.8274C41.6421 23.2884 42.309 23.7765 43.0293 24.2103C44.123 24.9153 44.87 24.5628 45.2968 23.3426C45.5635 22.5834 45.9103 21.8513 46.1237 21.0921C46.4705 19.7363 47.2975 19.3024 48.5513 19.6007C49.3249 19.7905 50.0452 20.1159 50.7921 20.3328C52.3394 20.7938 53.1664 20.2244 53.2464 18.5703C53.2731 17.784 53.2731 16.9705 53.2731 16.157C53.2464 14.9368 53.8866 14.3132 55.0337 14.2047C55.5139 14.1505 56.0208 14.2047 56.8477 14.2047C59.302 14.3945 60.0222 13.6082 58.9285 10.8966H72V9.78491H0V10.9238ZM53.2464 10.9238C48.9248 16.3197 42.3357 19.7634 35.053 19.6549C27.797 19.6549 21.2879 16.2384 17.0196 10.9238H53.2464ZM35.0263 21.6073C26.5165 21.6073 19.1004 17.3501 14.5387 10.8966H15.9259C20.3542 16.7536 27.3168 20.5226 35.1597 20.5226C42.9226 20.604 49.9118 16.7807 54.3401 10.8966H55.6206C50.9522 17.4315 43.3494 21.7428 35.0263 21.6073Z" fill="#C99E71"/>
</svg>
