<svg width="72" height="33" viewBox="0 0 72 33" fill="none" xmlns="http://www.w3.org/2000/svg">
<path d="M37.1871 21.4144C35.0797 19.5706 34.9463 17.8623 36.6536 15.7473C36.8937 15.449 37.1604 15.1507 37.3738 14.8254C38.9478 12.5477 38.4142 10.27 36.0133 9.02265C35.8266 8.91419 35.6132 8.80573 35.3731 8.69727C35.3998 8.83284 35.3998 8.91419 35.4265 8.96842C36.2268 10.5411 36.0667 11.9782 34.9463 13.3069C34.7595 13.5238 34.5995 13.7679 34.4661 14.0119C32.4387 17.2929 34.4394 20.8179 37.1871 21.4144Z" fill="#C99E71"/>
<path d="M33.0256 18.6216C31.7985 17.2929 31.7718 16.127 32.8655 14.717C33.0256 14.5272 33.1856 14.3102 33.319 14.0933C34.3327 12.5749 34.066 10.975 32.6521 10.0531C32.5454 9.97177 32.412 9.89043 32.2786 9.80908C32.2786 9.89043 32.2786 9.94466 32.3053 9.99889C32.7588 11.0835 32.5988 12.0868 31.9052 12.9816C31.7985 13.1172 31.6918 13.2799 31.585 13.4425C30.3046 15.666 31.3983 18.1606 33.0256 18.6216Z" fill="#C99E71"/>
<path d="M38.2008 19.8146C37.854 19.2181 37.6939 18.5944 38.0407 17.9436C38.2008 17.6454 38.4142 17.3742 38.6009 17.1302C39.0278 16.5608 39.1078 15.9642 38.841 15.3677C38.4142 15.9642 38.0141 16.5336 37.5872 17.1302C36.7869 18.2148 36.947 19.1096 38.2008 19.8146Z" fill="#C99E71"/>
<path d="M63.3034 31.8268C63.4368 31.7184 63.5435 31.6099 63.6769 31.5014C65.1175 30.1999 65.0908 29.5762 63.5435 28.3289C60.4491 25.8614 60.4491 25.8614 62.6632 22.5533C63.6769 21.0078 63.4368 20.0045 61.7029 19.4893C58.395 18.486 57.5413 18.8656 59.0886 14.1476C59.1152 14.0662 59.1686 13.9577 59.1953 13.8764C59.5421 12.602 59.1686 11.9783 57.8348 11.8156C57.0078 11.7072 56.1541 11.7885 55.3272 11.7343C53.5932 11.6529 53.193 11.192 53.1397 9.42947C53.1397 9.02274 53.1397 8.61601 53.1397 8.23639C53.1397 5.57908 52.7395 5.25369 50.2053 5.85023C46.7373 6.6637 46.7373 6.6637 45.4568 3.24715C44.6299 1.0508 44.2297 0.915224 42.309 2.18965C39.1879 4.22331 39.1878 4.22331 36.8136 1.29484C35.4265 -0.440548 34.8129 -0.440548 33.4524 1.34907C31.0248 4.52158 31.1582 4.41312 28.0371 2.24388C26.063 0.860993 25.5295 1.13215 24.7558 3.46408C23.8755 6.1485 23.5554 7.3687 20.4609 5.93158C20.2475 5.82312 19.9807 5.85023 19.7406 5.796C17.6866 5.30792 17.1797 5.60619 17.2064 7.7212C17.233 11.8427 16.7529 11.8156 13.0982 11.7885C11.1508 11.7885 10.6973 12.4664 11.2308 14.3102C12.3246 18.1606 12.3246 18.1606 8.61652 19.5164C6.88255 20.1401 6.56243 21.062 7.60282 22.5533C10.0037 26.0241 10.0571 25.9428 6.66914 28.4374C5.20193 29.522 5.20193 30.3626 6.58911 31.5014C6.74917 31.637 6.90923 31.7455 7.06928 31.8811H0V32.9928H71.8933V31.8811H63.3034V31.8268ZM11.7644 29.9016C11.791 16.8591 22.3016 6.25696 35.133 6.22985C48.0178 6.22985 58.5817 16.9676 58.5017 30.0914C58.5017 30.6609 58.475 31.2574 58.4216 31.8268H49.6984C52.3127 30.0101 53.5932 27.4341 52.5795 25.8343C52.0193 24.9395 50.8188 24.5599 49.3249 24.7497C49.3783 24.3701 49.4316 23.9905 49.4583 23.6108C49.5117 23.1499 49.3516 22.6889 49.0315 22.3364C48.7114 21.9839 48.2579 21.767 47.7777 21.767H23.502C23.0219 21.767 22.5684 21.9839 22.2482 22.3364C21.9281 22.6889 21.7947 23.1228 21.8214 23.6108C22.0882 26.7291 23.1819 29.5491 24.8359 31.8268H11.8444C11.791 31.2032 11.7644 30.5524 11.7644 29.9016ZM46.5773 31.6099C47.6443 30.0643 48.4713 28.3018 48.9781 26.458C49.9919 26.2139 50.8188 26.3495 51.1123 26.8105C51.3524 27.1901 51.2457 27.8137 50.8455 28.4916C50.392 29.2509 49.6184 30.0101 48.658 30.6337C47.9644 31.0947 47.2708 31.4201 46.5773 31.6099ZM9.81697 29.4135C10.1371 15.1779 21.5546 4.11485 35.4531 4.25042C49.3516 4.386 60.9826 16.371 60.3957 31.176C60.3957 31.393 60.369 31.6099 60.369 31.8268H59.302C59.3553 31.2303 59.382 30.6066 59.382 29.983C59.4087 16.4795 48.5246 5.38927 35.2664 5.36215C21.8481 5.33504 10.9374 16.3439 10.9107 29.9287C10.9107 30.5795 10.9374 31.2032 10.9907 31.8268H9.87032C9.81697 31.0405 9.81697 30.227 9.81697 29.4135Z" fill="#C99E71"/>
</svg>
